<svg xmlns="http://www.w3.org/2000/svg" width="31" height="31" viewBox="-2 -6 31 31" fill="none">
  <circle cx="3.5" cy="-1" r="3.5" fill="currentColor"></circle>
  <path d="M 25.127 8.465 L 21.927 5.267 C 21.807 5.147 21.662 5.045 21.508 4.968 L 15.108 1.77 C 14.323 1.378 13.359 1.693 12.958 2.486 C 12.565 3.279 12.881 4.235 13.675 4.635 L 17.609 6.597 L 14.852 7.996 L 2.445 0.243 C 1.694 -0.226 0.704 0.004 0.243 0.755 C -0.226 1.505 0.004 2.495 0.755 2.955 L 13.171 10.716 L 13.854 12.081 L 8.879 14.563 C 8.418 14.793 8.094 15.228 8.017 15.74 C 7.932 16.252 8.103 16.763 8.469 17.13 L 13.274 21.932 C 13.589 22.247 13.999 22.401 14.409 22.401 C 14.818 22.401 15.228 22.247 15.544 21.932 C 16.167 21.309 16.167 20.294 15.544 19.672 L 12.318 16.448 L 16.73 14.239 L 16.738 14.23 L 22.609 11.262 L 24.026 22.605 C 24.128 23.416 24.819 24.004 25.613 24.004 C 25.681 24.004 25.75 23.996 25.809 23.996 C 26.688 23.885 27.311 23.083 27.2 22.213 L 25.596 9.42 C 25.536 9.045 25.383 8.712 25.127 8.465 Z" fill="currentColor" fill-rule="nonzero"></path>
</svg>